<?xml version="1.0" encoding="us-ascii" standalone="no"?><svg xmlns="http://www.w3.org/2000/svg" xmlns:xlink="http://www.w3.org/1999/xlink" contentStyleType="text/css" height="456px" preserveAspectRatio="none" style="width:791px;height:456px;background:#FFFFFF;" version="1.1" viewBox="0 0 791 456" width="791px" zoomAndPan="magnify"><defs><linearGradient id="g1s9lmyh4ndneu0" x1="50%" x2="50%" y1="0%" y2="100%"><stop offset="0%" stop-color="#FFFFFF"/><stop offset="100%" stop-color="#C2F0FF"/></linearGradient></defs><g><text fill="#000000" font-family="sans-serif" font-size="14" font-weight="bold" lengthAdjust="spacing" textLength="24" x="376.5" y="22.9951">cdi</text><!--class etudiant--><g id="elem_etudiant"><rect codeLine="15" fill="url(#g1s9lmyh4ndneu0)" height="172.6719" id="etudiant" rx="2.5" ry="2.5" style="stroke:#778899;stroke-width:1.0;" width="152" x="69" y="44.2969"/><rect fill="url(#g1s9lmyh4ndneu0)" height="26.2969" rx="2.5" ry="2.5" style="stroke:url(#g1s9lmyh4ndneu0);stroke-width:1.0;" width="152" x="69" y="44.2969"/><rect fill="url(#g1s9lmyh4ndneu0)" height="2.5" style="stroke:url(#g1s9lmyh4ndneu0);stroke-width:1.0;" width="152" x="69" y="68.0938"/><rect codeLine="15" fill="none" height="172.6719" id="etudiant" rx="2.5" ry="2.5" style="stroke:#778899;stroke-width:1.0;" width="152" x="69" y="44.2969"/><text fill="#000000" font-family="sans-serif" font-size="14" lengthAdjust="spacing" textLength="61" x="114.5" y="62.292">etudiant</text><line style="stroke:#778899;stroke-width:1.0;" x1="70" x2="220" y1="70.5938" y2="70.5938"/><line style="stroke:#778899;stroke-width:1.0;" x1="70" x2="220" y1="78.5938" y2="78.5938"/><ellipse cx="80" cy="92.2422" fill="#000000" rx="3" ry="3" style="stroke:#000000;stroke-width:1.0;"/><text fill="#000000" font-family="sans-serif" font-size="14" lengthAdjust="spacing" textLength="75" x="89" y="95.5889">id: integer</text><ellipse cx="80" cy="108.5391" fill="#000000" rx="3" ry="3" style="stroke:#000000;stroke-width:1.0;"/><text fill="#000000" font-family="sans-serif" font-size="14" lengthAdjust="spacing" textLength="90" x="89" y="111.8857">email: string</text><ellipse cx="80" cy="124.8359" fill="#000000" rx="3" ry="3" style="stroke:#000000;stroke-width:1.0;"/><text fill="#000000" font-family="sans-serif" font-size="14" lengthAdjust="spacing" textLength="73" x="89" y="128.1826">roles: json</text><ellipse cx="80" cy="141.1328" fill="#000000" rx="3" ry="3" style="stroke:#000000;stroke-width:1.0;"/><text fill="#000000" font-family="sans-serif" font-size="14" lengthAdjust="spacing" textLength="118" x="89" y="144.4795">password: string</text><text fill="#000000" font-family="sans-serif" font-size="14" lengthAdjust="spacing" textLength="83" x="89" y="160.7764">nom: string</text><text fill="#000000" font-family="sans-serif" font-size="14" lengthAdjust="spacing" textLength="108" x="89" y="177.0732">prenom: string</text><text fill="#000000" font-family="sans-serif" font-size="14" lengthAdjust="spacing" textLength="126" x="89" y="193.3701">telephone: string</text><text fill="#000000" font-family="sans-serif" font-size="14" lengthAdjust="spacing" textLength="96" x="89" y="209.667">avatar: string</text></g><!--class livre_genre--><g id="elem_livre_genre"><rect codeLine="26" fill="url(#g1s9lmyh4ndneu0)" height="74.8906" id="livre_genre" rx="2.5" ry="2.5" style="stroke:#778899;stroke-width:1.0;" width="150" x="522" y="93.2969"/><rect fill="url(#g1s9lmyh4ndneu0)" height="26.2969" rx="2.5" ry="2.5" style="stroke:url(#g1s9lmyh4ndneu0);stroke-width:1.0;" width="150" x="522" y="93.2969"/><rect fill="url(#g1s9lmyh4ndneu0)" height="2.5" style="stroke:url(#g1s9lmyh4ndneu0);stroke-width:1.0;" width="150" x="522" y="117.0938"/><rect codeLine="26" fill="none" height="74.8906" id="livre_genre" rx="2.5" ry="2.5" style="stroke:#778899;stroke-width:1.0;" width="150" x="522" y="93.2969"/><text fill="#000000" font-family="sans-serif" font-size="14" lengthAdjust="spacing" textLength="80" x="557" y="111.292">livre_genre</text><line style="stroke:#778899;stroke-width:1.0;" x1="523" x2="671" y1="119.5938" y2="119.5938"/><line style="stroke:#778899;stroke-width:1.0;" x1="523" x2="671" y1="127.5938" y2="127.5938"/><ellipse cx="533" cy="141.2422" fill="#000000" rx="3" ry="3" style="stroke:#000000;stroke-width:1.0;"/><text fill="#000000" font-family="sans-serif" font-size="14" lengthAdjust="spacing" textLength="113" x="542" y="144.5889">livre_id: integer</text><ellipse cx="533" cy="157.5391" fill="#000000" rx="3" ry="3" style="stroke:#000000;stroke-width:1.0;"/><text fill="#000000" font-family="sans-serif" font-size="14" lengthAdjust="spacing" textLength="124" x="542" y="160.8857">genre_id: integer</text></g><!--class doctrine_migration_versions--><g id="elem_doctrine_migration_versions"><rect codeLine="31" fill="url(#g1s9lmyh4ndneu0)" height="91.1875" id="doctrine_migration_versions" rx="2.5" ry="2.5" style="stroke:#778899;stroke-width:1.0;" width="210" x="256" y="85.2969"/><rect fill="url(#g1s9lmyh4ndneu0)" height="26.2969" rx="2.5" ry="2.5" style="stroke:url(#g1s9lmyh4ndneu0);stroke-width:1.0;" width="210" x="256" y="85.2969"/><rect fill="url(#g1s9lmyh4ndneu0)" height="2.5" style="stroke:url(#g1s9lmyh4ndneu0);stroke-width:1.0;" width="210" x="256" y="109.0938"/><rect codeLine="31" fill="none" height="91.1875" id="doctrine_migration_versions" rx="2.5" ry="2.5" style="stroke:#778899;stroke-width:1.0;" width="210" x="256" y="85.2969"/><text fill="#000000" font-family="sans-serif" font-size="14" lengthAdjust="spacing" textLength="204" x="259" y="103.292">doctrine_migration_versions</text><line style="stroke:#778899;stroke-width:1.0;" x1="257" x2="465" y1="111.5938" y2="111.5938"/><line style="stroke:#778899;stroke-width:1.0;" x1="257" x2="465" y1="119.5938" y2="119.5938"/><ellipse cx="267" cy="133.2422" fill="#000000" rx="3" ry="3" style="stroke:#000000;stroke-width:1.0;"/><text fill="#000000" font-family="sans-serif" font-size="14" lengthAdjust="spacing" textLength="103" x="276" y="136.5889">version: string</text><text fill="#000000" font-family="sans-serif" font-size="14" lengthAdjust="spacing" textLength="165" x="276" y="152.8857">executed_at: datetime</text><text fill="#000000" font-family="sans-serif" font-size="14" lengthAdjust="spacing" textLength="174" x="276" y="169.1826">execution_time: integer</text></g><!--class livre--><g id="elem_livre"><rect codeLine="37" fill="url(#g1s9lmyh4ndneu0)" height="172.6719" id="livre" rx="2.5" ry="2.5" style="stroke:#778899;stroke-width:1.0;" width="189" x="410.5" y="277.2969"/><rect fill="url(#g1s9lmyh4ndneu0)" height="26.2969" rx="2.5" ry="2.5" style="stroke:url(#g1s9lmyh4ndneu0);stroke-width:1.0;" width="189" x="410.5" y="277.2969"/><rect fill="url(#g1s9lmyh4ndneu0)" height="2.5" style="stroke:url(#g1s9lmyh4ndneu0);stroke-width:1.0;" width="189" x="410.5" y="301.0938"/><rect codeLine="37" fill="none" height="172.6719" id="livre" rx="2.5" ry="2.5" style="stroke:#778899;stroke-width:1.0;" width="189" x="410.5" y="277.2969"/><text fill="#000000" font-family="sans-serif" font-size="14" lengthAdjust="spacing" textLength="31" x="489.5" y="295.292">livre</text><line style="stroke:#778899;stroke-width:1.0;" x1="411.5" x2="598.5" y1="303.5938" y2="303.5938"/><line style="stroke:#778899;stroke-width:1.0;" x1="411.5" x2="598.5" y1="311.5938" y2="311.5938"/><ellipse cx="421.5" cy="325.2422" fill="#000000" rx="3" ry="3" style="stroke:#000000;stroke-width:1.0;"/><text fill="#000000" font-family="sans-serif" font-size="14" lengthAdjust="spacing" textLength="75" x="430.5" y="328.5889">id: integer</text><ellipse cx="421.5" cy="341.5391" fill="#000000" rx="3" ry="3" style="stroke:#000000;stroke-width:1.0;"/><text fill="#000000" font-family="sans-serif" font-size="14" lengthAdjust="spacing" textLength="84" x="430.5" y="344.8857">titre: string</text><ellipse cx="421.5" cy="357.8359" fill="#000000" rx="3" ry="3" style="stroke:#000000;stroke-width:1.0;"/><text fill="#000000" font-family="sans-serif" font-size="14" lengthAdjust="spacing" textLength="103" x="430.5" y="361.1826">editeur: string</text><ellipse cx="421.5" cy="374.1328" fill="#000000" rx="3" ry="3" style="stroke:#000000;stroke-width:1.0;"/><text fill="#000000" font-family="sans-serif" font-size="14" lengthAdjust="spacing" textLength="97" x="430.5" y="377.4795">auteur: string</text><ellipse cx="421.5" cy="390.4297" fill="#000000" rx="3" ry="3" style="stroke:#000000;stroke-width:1.0;"/><text fill="#000000" font-family="sans-serif" font-size="14" lengthAdjust="spacing" textLength="81" x="430.5" y="393.7764">isbn: string</text><ellipse cx="421.5" cy="406.7266" fill="#000000" rx="3" ry="3" style="stroke:#000000;stroke-width:1.0;"/><text fill="#000000" font-family="sans-serif" font-size="14" lengthAdjust="spacing" textLength="163" x="430.5" y="410.0732">date_publication: date</text><text fill="#000000" font-family="sans-serif" font-size="14" lengthAdjust="spacing" textLength="95" x="430.5" y="426.3701">image: string</text><ellipse cx="421.5" cy="439.3203" fill="#000000" rx="3" ry="3" style="stroke:#000000;stroke-width:1.0;"/><text fill="#000000" font-family="sans-serif" font-size="14" lengthAdjust="spacing" textLength="93" x="430.5" y="442.667">resume: text</text></g><!--class messenger_messages--><g id="elem_messenger_messages"><rect codeLine="48" fill="url(#g1s9lmyh4ndneu0)" height="156.375" id="messenger_messages" rx="2.5" ry="2.5" style="stroke:#778899;stroke-width:1.0;" width="276" x="7" y="285.7969"/><rect fill="url(#g1s9lmyh4ndneu0)" height="26.2969" rx="2.5" ry="2.5" style="stroke:url(#g1s9lmyh4ndneu0);stroke-width:1.0;" width="276" x="7" y="285.7969"/><rect fill="url(#g1s9lmyh4ndneu0)" height="2.5" style="stroke:url(#g1s9lmyh4ndneu0);stroke-width:1.0;" width="276" x="7" y="309.5938"/><rect codeLine="48" fill="none" height="156.375" id="messenger_messages" rx="2.5" ry="2.5" style="stroke:#778899;stroke-width:1.0;" width="276" x="7" y="285.7969"/><text fill="#000000" font-family="sans-serif" font-size="14" lengthAdjust="spacing" textLength="156" x="67" y="303.792">messenger_messages</text><line style="stroke:#778899;stroke-width:1.0;" x1="8" x2="282" y1="312.0938" y2="312.0938"/><line style="stroke:#778899;stroke-width:1.0;" x1="8" x2="282" y1="320.0938" y2="320.0938"/><ellipse cx="18" cy="333.7422" fill="#000000" rx="3" ry="3" style="stroke:#000000;stroke-width:1.0;"/><text fill="#000000" font-family="sans-serif" font-size="14" lengthAdjust="spacing" textLength="65" x="27" y="337.0889">id: bigint</text><ellipse cx="18" cy="350.0391" fill="#000000" rx="3" ry="3" style="stroke:#000000;stroke-width:1.0;"/><text fill="#000000" font-family="sans-serif" font-size="14" lengthAdjust="spacing" textLength="76" x="27" y="353.3857">body: text</text><ellipse cx="18" cy="366.3359" fill="#000000" rx="3" ry="3" style="stroke:#000000;stroke-width:1.0;"/><text fill="#000000" font-family="sans-serif" font-size="14" lengthAdjust="spacing" textLength="97" x="27" y="369.6826">headers: text</text><ellipse cx="18" cy="382.6328" fill="#000000" rx="3" ry="3" style="stroke:#000000;stroke-width:1.0;"/><text fill="#000000" font-family="sans-serif" font-size="14" lengthAdjust="spacing" textLength="141" x="27" y="385.9795">queue_name: string</text><ellipse cx="18" cy="398.9297" fill="#000000" rx="3" ry="3" style="stroke:#000000;stroke-width:1.0;"/><text fill="#000000" font-family="sans-serif" font-size="14" lengthAdjust="spacing" textLength="239" x="27" y="402.2764">created_at: datetime_immutable</text><ellipse cx="18" cy="415.2266" fill="#000000" rx="3" ry="3" style="stroke:#000000;stroke-width:1.0;"/><text fill="#000000" font-family="sans-serif" font-size="14" lengthAdjust="spacing" textLength="246" x="27" y="418.5732">available_at: datetime_immutable</text><text fill="#000000" font-family="sans-serif" font-size="14" lengthAdjust="spacing" textLength="250" x="27" y="434.8701">delivered_at: datetime_immutable</text></g><!--class genre--><g id="elem_genre"><rect codeLine="58" fill="url(#g1s9lmyh4ndneu0)" height="91.1875" id="genre" rx="2.5" ry="2.5" style="stroke:#778899;stroke-width:1.0;" width="150" x="635" y="318.2969"/><rect fill="url(#g1s9lmyh4ndneu0)" height="26.2969" rx="2.5" ry="2.5" style="stroke:url(#g1s9lmyh4ndneu0);stroke-width:1.0;" width="150" x="635" y="318.2969"/><rect fill="url(#g1s9lmyh4ndneu0)" height="2.5" style="stroke:url(#g1s9lmyh4ndneu0);stroke-width:1.0;" width="150" x="635" y="342.0938"/><rect codeLine="58" fill="none" height="91.1875" id="genre" rx="2.5" ry="2.5" style="stroke:#778899;stroke-width:1.0;" width="150" x="635" y="318.2969"/><text fill="#000000" font-family="sans-serif" font-size="14" lengthAdjust="spacing" textLength="42" x="689" y="336.292">genre</text><line style="stroke:#778899;stroke-width:1.0;" x1="636" x2="784" y1="344.5938" y2="344.5938"/><line style="stroke:#778899;stroke-width:1.0;" x1="636" x2="784" y1="352.5938" y2="352.5938"/><ellipse cx="646" cy="366.2422" fill="#000000" rx="3" ry="3" style="stroke:#000000;stroke-width:1.0;"/><text fill="#000000" font-family="sans-serif" font-size="14" lengthAdjust="spacing" textLength="75" x="655" y="369.5889">id: integer</text><ellipse cx="646" cy="382.5391" fill="#000000" rx="3" ry="3" style="stroke:#000000;stroke-width:1.0;"/><text fill="#000000" font-family="sans-serif" font-size="14" lengthAdjust="spacing" textLength="83" x="655" y="385.8857">nom: string</text><ellipse cx="646" cy="398.8359" fill="#000000" rx="3" ry="3" style="stroke:#000000;stroke-width:1.0;"/><text fill="#000000" font-family="sans-serif" font-size="14" lengthAdjust="spacing" textLength="122" x="655" y="402.1826">description: text</text></g><!--link livre_genre to livre--><g id="link_livre_genre_livre"><path codeLine="64" d="M560.75,186.4909 C560.75,215.8569 560.75,231.7989 560.75,269.2929 " fill="none" id="livre_genre-livre" style="stroke:#333333;stroke-width:1.5;"/><line style="stroke:#333333;stroke-width:1.5;" x1="560.75" x2="554.75" y1="176.4909" y2="168.4909"/><line style="stroke:#333333;stroke-width:1.5;" x1="560.75" x2="566.75" y1="176.4909" y2="168.4909"/><line style="stroke:#333333;stroke-width:1.5;" x1="560.75" x2="560.75" y1="176.4909" y2="168.4909"/><ellipse cx="560.75" cy="182.4909" fill="none" rx="4" ry="4" style="stroke:#333333;stroke-width:1.5;"/><line style="stroke:#333333;stroke-width:1.5;" x1="564.75" x2="556.75" y1="273.2929" y2="273.2929"/><line style="stroke:#333333;stroke-width:1.5;" x1="564.75" x2="556.75" y1="270.2929" y2="270.2929"/><line style="stroke:#333333;stroke-width:1.5;" x1="560.75" x2="560.75" y1="269.2929" y2="277.2929"/></g><!--link livre_genre to genre--><g id="link_livre_genre_genre"><path codeLine="65" d="M653.5,186.4909 C653.5,227.3199 653.5,266.4589 653.5,310.1539 " fill="none" id="livre_genre-genre" style="stroke:#333333;stroke-width:1.5;"/><line style="stroke:#333333;stroke-width:1.5;" x1="653.5" x2="647.5" y1="176.4909" y2="168.4909"/><line style="stroke:#333333;stroke-width:1.5;" x1="653.5" x2="659.5" y1="176.4909" y2="168.4909"/><line style="stroke:#333333;stroke-width:1.5;" x1="653.5" x2="653.5" y1="176.4909" y2="168.4909"/><ellipse cx="653.5" cy="182.4909" fill="none" rx="4" ry="4" style="stroke:#333333;stroke-width:1.5;"/><line style="stroke:#333333;stroke-width:1.5;" x1="657.5" x2="649.5" y1="314.1539" y2="314.1539"/><line style="stroke:#333333;stroke-width:1.5;" x1="657.5" x2="649.5" y1="311.1539" y2="311.1539"/><line style="stroke:#333333;stroke-width:1.5;" x1="653.5" x2="653.5" y1="310.1539" y2="318.1539"/></g><!--SRC=[TLDDRzim3BtxLmZeBK265K4lkMK1DXJ8rW09qACXMwpDHHyUHISrrlxtqN6JA9bxiXxvH3u-qJKQKE0QxfG3Lm35hEv39L9f8Oixz8qcxTI2A1oMmGPITxFPx3QphR7SUOXHtNzvI99BgsFyfijTHQ7rPYZmN2F3TB5UhnwNY-tZqw__BWGoG0DvXLND6wiPVf3knfb9zuJm4_sHyuo6QtN_y3N9hT33jcj0FH7N8KbiQct20NsbNhIDgGDhcK9NS3lC7S0OAvbWdF4zUDvmPq7vG4xRZ945b0Opy7Bk571hK7jMVxFfD9ieD7E5dg424WHEevsho2HY1LEm4EVgTmnUK2Dp7qJ3cI1Tt0Kq15UOmK9J1m-NaDvhrdJ6xoTL5lS4UGMUu2Hi25tBEnAkOkSA9fHzJSWTLgGPWy_tidZoZQUA7_YY1bwXR1bChdckZ2m3euDJkA_Guv5UHsdZ1agU834GZ6nbIqb4jpS1Z8LFOAyZRzh2OdaSOr2MANJolkdJG6nxTGolV97cP5_1YvQyFycDcEeii1Af0efWke-h4rM3bhMAP_odXHPohrtQhYJGjrRbw5pBkf1_Uj8_BTh-_1b56H3ZW3ulSfxYQX6k3KutJCo2M18sWqyVJgIxz1wcqxUtuS764aVm3m00]--></g></svg>